{
  "accessors": [
    {
      "bufferView": 1,
      "componentType": 5126,
      "count": 65532,
      "max": [
        17.841102600097656,
        38.053020477294922,
        49.334186553955078
      ],
      "min": [
        -29.563743591308594,
        -27.888145446777344,
        -8.9685290731722489e-06
      ],
      "type": "VEC3"
    },
    {
      "bufferView": 1,
      "byteOffset": 786384,
      "componentType": 5126,
      "count": 65532,
      "max": [
        0.99815279245376587,
        0.99999648332595825,
        0.99970096349716187
      ],
      "min": [
        -0.99994164705276489,
        -0.9999585747718811,
        -1
      ],
      "type": "VEC3"
    },
    {
      "bufferView": 0,
      "componentType": 5125,
      "count": 376008,
      "max": [
        65531
      ],
      "min": [
        0
      ],
      "type": "SCALAR"
    },
    {
      "bufferView": 1,
      "byteOffset": 1572768,
      "componentType": 5126,
      "count": 65532,
      "max": [
        15.906743049621582,
        38.047397613525391,
        64.893234252929688
      ],
      "min": [
        -29.679449081420898,
        -30.397680282592773,
        -3.3343152608722448e-05
      ],
      "type": "VEC3"
    },
    {
      "bufferView": 1,
      "byteOffset": 2359152,
      "componentType": 5126,
      "count": 65532,
      "max": [
        0.98277044296264648,
        0.99944472312927246,
        0.99999833106994629
      ],
      "min": [
        -0.99995589256286621,
        -0.99933570623397827,
        -1
      ],
      "type": "VEC3"
    },
    {
      "bufferView": 0,
      "byteOffset": 1504032,
      "componentType": 5125,
      "count": 352098,
      "max": [
        65531
      ],
      "min": [
        0
      ],
      "type": "SCALAR"
    },
    {
      "bufferView": 1,
      "byteOffset": 3145536,
      "componentType": 5126,
      "count": 65532,
      "max": [
        23.130685806274414,
        15.49925708770752,
        70.180191040039062
      ],
      "min": [
        -24.920120239257812,
        -34.738128662109375,
        -6.6201479057781398e-05
      ],
      "type": "VEC3"
    },
    {
      "bufferView": 1,
      "byteOffset": 3931920,
      "componentType": 5126,
      "count": 65532,
      "max": [
        0.99999105930328369,
        0.99999088048934937,
        0.99983811378479004
      ],
      "min": [
        -0.99999415874481201,
        -0.99998182058334351,
        -1
      ],
      "type": "VEC3"
    },
    {
      "bufferView": 0,
      "byteOffset": 2912424,
      "componentType": 5125,
      "count": 357945,
      "max": [
        65531
      ],
      "min": [
        0
      ],
      "type": "SCALAR"
    },
    {
      "bufferView": 1,
      "byteOffset": 4718304,
      "componentType": 5126,
      "count": 65532,
      "max": [
        19.686014175415039,
        12.102088928222656,
        71.248046875
      ],
      "min": [
        -21.070308685302734,
        -26.367231369018555,
        1.3034698440606007e-06
      ],
      "type": "VEC3"
    },
    {
      "bufferView": 1,
      "byteOffset": 5504688,
      "componentType": 5126,
      "count": 65532,
      "max": [
        0.99999737739562988,
        0.99992614984512329,
        0.99213391542434692
      ],
      "min": [
        -0.99996531009674072,
        -0.99999046325683594,
        -0.99752074480056763
      ],
      "type": "VEC3"
    },
    {
      "bufferView": 0,
      "byteOffset": 4344204,
      "componentType": 5125,
      "count": 352551,
      "max": [
        65531
      ],
      "min": [
        0
      ],
      "type": "SCALAR"
    },
    {
      "bufferView": 1,
      "byteOffset": 6291072,
      "componentType": 5126,
      "count": 65532,
      "max": [
        32.063846588134766,
        10.997859001159668,
        45.39752197265625
      ],
      "min": [
        -7.6720490455627441,
        -24.4569091796875,
        -5.6561551900813356e-05
      ],
      "type": "VEC3"
    },
    {
      "bufferView": 1,
      "byteOffset": 7077456,
      "componentType": 5126,
      "count": 65532,
      "max": [
        0.99999898672103882,
        0.99187809228897095,
        0.99987334012985229
      ],
      "min": [
        -0.84453612565994263,
        -0.99999392032623291,
        -1
      ],
      "type": "VEC3"
    },
    {
      "bufferView": 0,
      "byteOffset": 5754408,
      "componentType": 5125,
      "count": 364749,
      "max": [
        65531
      ],
      "min": [
        0
      ],
      "type": "SCALAR"
    },
    {
      "bufferView": 1,
      "byteOffset": 7863840,
      "componentType": 5126,
      "count": 65532,
      "max": [
        21.743869781494141,
        10.424308776855469,
        94.562461853027344
      ],
      "min": [
        -37.680225372314453,
        -27.642913818359375,
        3.1891577243804932
      ],
      "type": "VEC3"
    },
    {
      "bufferView": 1,
      "byteOffset": 8650224,
      "componentType": 5126,
      "count": 65532,
      "max": [
        0.97730731964111328,
        0.99958795309066772,
        0.99983006715774536
      ],
      "min": [
        -0.99993735551834106,
        -0.99999904632568359,
        -0.99944549798965454
      ],
      "type": "VEC3"
    },
    {
      "bufferView": 0,
      "byteOffset": 7213404,
      "componentType": 5125,
      "count": 363522,
      "max": [
        65531
      ],
      "min": [
        0
      ],
      "type": "SCALAR"
    },
    {
      "bufferView": 1,
      "byteOffset": 9436608,
      "componentType": 5126,
      "count": 65532,
      "max": [
        25.895294189453125,
        5.7731003761291504,
        99.999885559082031
      ],
      "min": [
        -23.987770080566406,
        -34.910221099853516,
        42.074333190917969
      ],
      "type": "VEC3"
    },
    {
      "bufferView": 1,
      "byteOffset": 10222992,
      "componentType": 5126,
      "count": 65532,
      "max": [
        0.98829954862594604,
        0.99946838617324829,
        0.9998551607131958
      ],
      "min": [
        -0.99999529123306274,
        -0.99994879961013794,
        -0.99998325109481812
      ],
      "type": "VEC3"
    },
    {
      "bufferView": 0,
      "byteOffset": 8667492,
      "componentType": 5125,
      "count": 362718,
      "max": [
        65531
      ],
      "min": [
        0
      ],
      "type": "SCALAR"
    },
    {
      "bufferView": 1,
      "byteOffset": 11009376,
      "componentType": 5126,
      "count": 65532,
      "max": [
        25.678318023681641,
        15.469624519348145,
        99.650093078613281
      ],
      "min": [
        -25.953544616699219,
        -34.89190673828125,
        27.751012802124023
      ],
      "type": "VEC3"
    },
    {
      "bufferView": 1,
      "byteOffset": 11795760,
      "componentType": 5126,
      "count": 65532,
      "max": [
        0.98867124319076538,
        0.99998319149017334,
        0.99887853860855103
      ],
      "min": [
        -0.99998575448989868,
        -0.99980628490447998,
        -0.99999380111694336
      ],
      "type": "VEC3"
    },
    {
      "bufferView": 0,
      "byteOffset": 10118364,
      "componentType": 5125,
      "count": 321693,
      "max": [
        65531
      ],
      "min": [
        0
      ],
      "type": "SCALAR"
    },
    {
      "bufferView": 1,
      "byteOffset": 12582144,
      "componentType": 5126,
      "count": 57106,
      "max": [
        38.437576293945312,
        27.813404083251953,
        99.964126586914062
      ],
      "min": [
        -24.854732513427734,
        -30.404638290405273,
        -1.2639136912184767e-05
      ],
      "type": "VEC3"
    },
    {
      "bufferView": 1,
      "byteOffset": 13267416,
      "componentType": 5126,
      "count": 57106,
      "max": [
        0.99977385997772217,
        0.99948102235794067,
        0.99973297119140625
      ],
      "min": [
        -0.99698334932327271,
        -0.99999254941940308,
        -1
      ],
      "type": "VEC3"
    },
    {
      "bufferView": 0,
      "byteOffset": 11405136,
      "componentType": 5125,
      "count": 285354,
      "max": [
        57105
      ],
      "min": [
        0
      ],
      "type": "SCALAR"
    }
  ],
  "asset": {
    "extras": {
      "author": "Patrickart.hk (https://sketchfab.com/Patrickart.hk)",
      "license": "CC-BY-NC-ND-4.0 (http://creativecommons.org/licenses/by-nc-nd/4.0/)",
      "source": "https://sketchfab.com/3d-models/mudkippokemon-e7fcd5602d784774b126d593c21b7bc1",
      "title": "Mudkip(Pokemon)"
    },
    "generator": "Sketchfab-9.72.0",
    "version": "2.0"
  },
  "bufferViews": [
    {
      "buffer": 0,
      "byteLength": 12546552,
      "byteOffset": 0,
      "name": "floatBufferViews",
      "target": 34963
    },
    {
      "buffer": 0,
      "byteLength": 13952688,
      "byteOffset": 12546552,
      "byteStride": 12,
      "name": "floatBufferViews",
      "target": 34962
    }
  ],
  "buffers": [
    {
      "byteLength": 26499240,
      "uri": "scene.bin"
    }
  ],
  "materials": [
    {
      "doubleSided": true,
      "name": "Scene_-_Root",
      "pbrMetallicRoughness": {
        "baseColorFactor": [
          1,
          1,
          1,
          1
        ],
        "metallicFactor": 0,
        "roughnessFactor": 0.59999999999999998
      }
    }
  ],
  "meshes": [
    {
      "primitives": [
        {
          "attributes": {
            "NORMAL": 1,
            "POSITION": 0
          },
          "indices": 2,
          "material": 0,
          "mode": 4
        }
      ]
    },
    {
      "primitives": [
        {
          "attributes": {
            "NORMAL": 4,
            "POSITION": 3
          },
          "indices": 5,
          "material": 0,
          "mode": 4
        }
      ]
    },
    {
      "primitives": [
        {
          "attributes": {
            "NORMAL": 7,
            "POSITION": 6
          },
          "indices": 8,
          "material": 0,
          "mode": 4
        }
      ]
    },
    {
      "primitives": [
        {
          "attributes": {
            "NORMAL": 10,
            "POSITION": 9
          },
          "indices": 11,
          "material": 0,
          "mode": 4
        }
      ]
    },
    {
      "primitives": [
        {
          "attributes": {
            "NORMAL": 13,
            "POSITION": 12
          },
          "indices": 14,
          "material": 0,
          "mode": 4
        }
      ]
    },
    {
      "primitives": [
        {
          "attributes": {
            "NORMAL": 16,
            "POSITION": 15
          },
          "indices": 17,
          "material": 0,
          "mode": 4
        }
      ]
    },
    {
      "primitives": [
        {
          "attributes": {
            "NORMAL": 19,
            "POSITION": 18
          },
          "indices": 20,
          "material": 0,
          "mode": 4
        }
      ]
    },
    {
      "primitives": [
        {
          "attributes": {
            "NORMAL": 22,
            "POSITION": 21
          },
          "indices": 23,
          "material": 0,
          "mode": 4
        }
      ]
    },
    {
      "primitives": [
        {
          "attributes": {
            "NORMAL": 25,
            "POSITION": 24
          },
          "indices": 26,
          "material": 0,
          "mode": 4
        }
      ]
    }
  ],
  "nodes": [
    {
      "children": [
        1
      ],
      "name": "RootNode (gltf orientation matrix)",
      "rotation": [
        -0.70710678118654746,
        -0,
        -0,
        0.70710678118654757
      ]
    },
    {
      "children": [
        2
      ],
      "name": "RootNode (model correction matrix)"
    },
    {
      "children": [
        3,
        4,
        5,
        6,
        7,
        8,
        9,
        10,
        11
      ],
      "name": "Mudkip_50MB.stl.cleaner.materialmerger.gles"
    },
    {
      "mesh": 0,
      "name": ""
    },
    {
      "mesh": 1,
      "name": ""
    },
    {
      "mesh": 2,
      "name": ""
    },
    {
      "mesh": 3,
      "name": ""
    },
    {
      "mesh": 4,
      "name": ""
    },
    {
      "mesh": 5,
      "name": ""
    },
    {
      "mesh": 6,
      "name": ""
    },
    {
      "mesh": 7,
      "name": ""
    },
    {
      "mesh": 8,
      "name": ""
    }
  ],
  "scene": 0,
  "scenes": [
    {
      "name": "OSG_Scene",
      "nodes": [
        0
      ]
    }
  ]
}

