{
  "accessors": [
    {
      "bufferView": 1,
      "componentType": 5126,
      "count": 65532,
      "max": [
        55.116302490234375,
        38.7989501953125,
        93.224441528320312
      ],
      "min": [
        -69.971961975097656,
        -38.654956817626953,
        -2.6783929570228793e-05
      ],
      "type": "VEC3"
    },
    {
      "bufferView": 1,
      "byteOffset": 786384,
      "componentType": 5126,
      "count": 65532,
      "max": [
        0.99986052513122559,
        0.99998641014099121,
        0.99995356798171997
      ],
      "min": [
        -0.99997609853744507,
        -0.99997812509536743,
        -0.99999493360519409
      ],
      "type": "VEC3"
    },
    {
      "bufferView": 0,
      "componentType": 5125,
      "count": 329664,
      "max": [
        65531
      ],
      "min": [
        0
      ],
      "type": "SCALAR"
    },
    {
      "bufferView": 1,
      "byteOffset": 1572768,
      "componentType": 5126,
      "count": 65532,
      "max": [
        55.122211456298828,
        39.251258850097656,
        94.336563110351562
      ],
      "min": [
        -53.909336090087891,
        -39.974967956542969,
        -8.8120366854127496e-05
      ],
      "type": "VEC3"
    },
    {
      "bufferView": 1,
      "byteOffset": 2359152,
      "componentType": 5126,
      "count": 65532,
      "max": [
        0.99999958276748657,
        0.99998766183853149,
        0.99999350309371948
      ],
      "min": [
        -0.9999052882194519,
        -0.99999904632568359,
        -1
      ],
      "type": "VEC3"
    },
    {
      "bufferView": 0,
      "byteOffset": 1318656,
      "componentType": 5125,
      "count": 333096,
      "max": [
        65531
      ],
      "min": [
        0
      ],
      "type": "SCALAR"
    },
    {
      "bufferView": 1,
      "byteOffset": 3145536,
      "componentType": 5126,
      "count": 65532,
      "max": [
        36.608287811279297,
        34.813495635986328,
        99.999885559082031
      ],
      "min": [
        -39.331546783447266,
        -41.291534423828125,
        -8.8120366854127496e-05
      ],
      "type": "VEC3"
    },
    {
      "bufferView": 1,
      "byteOffset": 3931920,
      "componentType": 5126,
      "count": 65532,
      "max": [
        0.99997061491012573,
        0.99958378076553345,
        0.99999886751174927
      ],
      "min": [
        -0.99999958276748657,
        -0.99996894598007202,
        -1
      ],
      "type": "VEC3"
    },
    {
      "bufferView": 0,
      "byteOffset": 2651040,
      "componentType": 5125,
      "count": 372531,
      "max": [
        65531
      ],
      "min": [
        0
      ],
      "type": "SCALAR"
    },
    {
      "bufferView": 1,
      "byteOffset": 4718304,
      "componentType": 5126,
      "count": 65532,
      "max": [
        24.689289093017578,
        38.006988525390625,
        97.623497009277344
      ],
      "min": [
        -49.033332824707031,
        -32.20599365234375,
        -5.8743713452713564e-05
      ],
      "type": "VEC3"
    },
    {
      "bufferView": 1,
      "byteOffset": 5504688,
      "componentType": 5126,
      "count": 65532,
      "max": [
        0.99999958276748657,
        0.99999028444290161,
        0.94044733047485352
      ],
      "min": [
        -0.99998688697814941,
        -0.99993789196014404,
        -0.99968498945236206
      ],
      "type": "VEC3"
    },
    {
      "bufferView": 0,
      "byteOffset": 4141164,
      "componentType": 5125,
      "count": 344454,
      "max": [
        65531
      ],
      "min": [
        0
      ],
      "type": "SCALAR"
    },
    {
      "bufferView": 1,
      "byteOffset": 6291072,
      "componentType": 5126,
      "count": 65532,
      "max": [
        37.772777557373047,
        32.373096466064453,
        67.245201110839844
      ],
      "min": [
        -27.62364387512207,
        -30.464256286621094,
        0.28822425007820129
      ],
      "type": "VEC3"
    },
    {
      "bufferView": 1,
      "byteOffset": 7077456,
      "componentType": 5126,
      "count": 65532,
      "max": [
        0.99993753433227539,
        0.99999243021011353,
        0.99792259931564331
      ],
      "min": [
        -0.9825407862663269,
        -0.99998956918716431,
        -0.99999547004699707
      ],
      "type": "VEC3"
    },
    {
      "bufferView": 0,
      "byteOffset": 5518980,
      "componentType": 5125,
      "count": 338802,
      "max": [
        65531
      ],
      "min": [
        0
      ],
      "type": "SCALAR"
    },
    {
      "bufferView": 1,
      "byteOffset": 7863840,
      "componentType": 5126,
      "count": 65532,
      "max": [
        40.6534423828125,
        32.525108337402344,
        71.302711486816406
      ],
      "min": [
        -34.391586303710938,
        -27.495124816894531,
        -4.033805089420639e-05
      ],
      "type": "VEC3"
    },
    {
      "bufferView": 1,
      "byteOffset": 8650224,
      "componentType": 5126,
      "count": 65532,
      "max": [
        0.99900579452514648,
        0.99997109174728394,
        0.99999350309371948
      ],
      "min": [
        -0.99890244007110596,
        -0.99977850914001465,
        -0.99999320507049561
      ],
      "type": "VEC3"
    },
    {
      "bufferView": 0,
      "byteOffset": 6874188,
      "componentType": 5125,
      "count": 312981,
      "max": [
        65531
      ],
      "min": [
        0
      ],
      "type": "SCALAR"
    },
    {
      "bufferView": 1,
      "byteOffset": 9436608,
      "componentType": 5126,
      "count": 65532,
      "max": [
        2.997265100479126,
        7.6096997261047363,
        62.949501037597656
      ],
      "min": [
        -34.72686767578125,
        -28.524749755859375,
        0.40584945678710938
      ],
      "type": "VEC3"
    },
    {
      "bufferView": 1,
      "byteOffset": 10222992,
      "componentType": 5126,
      "count": 65532,
      "max": [
        0.99999558925628662,
        0.99998080730438232,
        0.95961803197860718
      ],
      "min": [
        -0.99997609853744507,
        -0.99999916553497314,
        -0.99998301267623901
      ],
      "type": "VEC3"
    },
    {
      "bufferView": 0,
      "byteOffset": 8126112,
      "componentType": 5125,
      "count": 350457,
      "max": [
        65531
      ],
      "min": [
        0
      ],
      "type": "SCALAR"
    },
    {
      "bufferView": 1,
      "byteOffset": 11009376,
      "componentType": 5126,
      "count": 65532,
      "max": [
        55.115097045898438,
        43.421356201171875,
        95.197685241699219
      ],
      "min": [
        -46.504695892333984,
        -41.292518615722656,
        -2.4673479401826626e-06
      ],
      "type": "VEC3"
    },
    {
      "bufferView": 1,
      "byteOffset": 11795760,
      "componentType": 5126,
      "count": 65532,
      "max": [
        0.99998283386230469,
        0.99999397993087769,
        0.99919790029525757
      ],
      "min": [
        -0.99998551607131958,
        -0.99998480081558228,
        -0.99995744228363037
      ],
      "type": "VEC3"
    },
    {
      "bufferView": 0,
      "byteOffset": 9527940,
      "componentType": 5125,
      "count": 331740,
      "max": [
        65531
      ],
      "min": [
        0
      ],
      "type": "SCALAR"
    },
    {
      "bufferView": 1,
      "byteOffset": 12582144,
      "componentType": 5126,
      "count": 65532,
      "max": [
        55.120895385742188,
        43.381229400634766,
        94.546119689941406
      ],
      "min": [
        -69.395027160644531,
        -39.878135681152344,
        -2.4949591534095816e-05
      ],
      "type": "VEC3"
    },
    {
      "bufferView": 1,
      "byteOffset": 13368528,
      "componentType": 5126,
      "count": 65532,
      "max": [
        0.99993366003036499,
        0.99998599290847778,
        0.99998903274536133
      ],
      "min": [
        -0.99996346235275269,
        -0.99999904632568359,
        -0.99854415655136108
      ],
      "type": "VEC3"
    },
    {
      "bufferView": 0,
      "byteOffset": 10854900,
      "componentType": 5125,
      "count": 313971,
      "max": [
        65531
      ],
      "min": [
        0
      ],
      "type": "SCALAR"
    },
    {
      "bufferView": 1,
      "byteOffset": 14154912,
      "componentType": 5126,
      "count": 16268,
      "max": [
        1.6850029230117798,
        -3.2478251457214355,
        95.302268981933594
      ],
      "min": [
        -32.333999633789062,
        -34.444484710693359,
        19.722503662109375
      ],
      "type": "VEC3"
    },
    {
      "bufferView": 1,
      "byteOffset": 14350128,
      "componentType": 5126,
      "count": 16268,
      "max": [
        0.999988853931427,
        0.99998766183853149,
        0.99961572885513306
      ],
      "min": [
        -0.81960248947143555,
        -0.99993300437927246,
        -0.90798300504684448
      ],
      "type": "VEC3"
    },
    {
      "bufferView": 0,
      "byteOffset": 12110784,
      "componentType": 5125,
      "count": 59994,
      "max": [
        16267
      ],
      "min": [
        0
      ],
      "type": "SCALAR"
    }
  ],
  "asset": {
    "extras": {
      "author": "Patrickart.hk (https://sketchfab.com/Patrickart.hk)",
      "license": "CC-BY-NC-ND-4.0 (http://creativecommons.org/licenses/by-nc-nd/4.0/)",
      "source": "https://sketchfab.com/3d-models/umbreonpokemon-aedf459880f940a5ade2b9315d016349",
      "title": "Umbreon(Pokemon)"
    },
    "generator": "Sketchfab-9.94.0",
    "version": "2.0"
  },
  "bufferViews": [
    {
      "buffer": 0,
      "byteLength": 12350760,
      "byteOffset": 0,
      "name": "floatBufferViews",
      "target": 34963
    },
    {
      "buffer": 0,
      "byteLength": 14545344,
      "byteOffset": 12350760,
      "byteStride": 12,
      "name": "floatBufferViews",
      "target": 34962
    }
  ],
  "buffers": [
    {
      "byteLength": 26896104,
      "uri": "scene.bin"
    }
  ],
  "materials": [
    {
      "doubleSided": true,
      "name": "Scene_-_Root",
      "pbrMetallicRoughness": {
        "baseColorFactor": [
          1,
          1,
          1,
          1
        ],
        "metallicFactor": 0,
        "roughnessFactor": 0.59999999999999998
      }
    }
  ],
  "meshes": [
    {
      "primitives": [
        {
          "attributes": {
            "NORMAL": 1,
            "POSITION": 0
          },
          "indices": 2,
          "material": 0,
          "mode": 4
        }
      ]
    },
    {
      "primitives": [
        {
          "attributes": {
            "NORMAL": 4,
            "POSITION": 3
          },
          "indices": 5,
          "material": 0,
          "mode": 4
        }
      ]
    },
    {
      "primitives": [
        {
          "attributes": {
            "NORMAL": 7,
            "POSITION": 6
          },
          "indices": 8,
          "material": 0,
          "mode": 4
        }
      ]
    },
    {
      "primitives": [
        {
          "attributes": {
            "NORMAL": 10,
            "POSITION": 9
          },
          "indices": 11,
          "material": 0,
          "mode": 4
        }
      ]
    },
    {
      "primitives": [
        {
          "attributes": {
            "NORMAL": 13,
            "POSITION": 12
          },
          "indices": 14,
          "material": 0,
          "mode": 4
        }
      ]
    },
    {
      "primitives": [
        {
          "attributes": {
            "NORMAL": 16,
            "POSITION": 15
          },
          "indices": 17,
          "material": 0,
          "mode": 4
        }
      ]
    },
    {
      "primitives": [
        {
          "attributes": {
            "NORMAL": 19,
            "POSITION": 18
          },
          "indices": 20,
          "material": 0,
          "mode": 4
        }
      ]
    },
    {
      "primitives": [
        {
          "attributes": {
            "NORMAL": 22,
            "POSITION": 21
          },
          "indices": 23,
          "material": 0,
          "mode": 4
        }
      ]
    },
    {
      "primitives": [
        {
          "attributes": {
            "NORMAL": 25,
            "POSITION": 24
          },
          "indices": 26,
          "material": 0,
          "mode": 4
        }
      ]
    },
    {
      "primitives": [
        {
          "attributes": {
            "NORMAL": 28,
            "POSITION": 27
          },
          "indices": 29,
          "material": 0,
          "mode": 4
        }
      ]
    }
  ],
  "nodes": [
    {
      "children": [
        1
      ],
      "name": "RootNode (gltf orientation matrix)",
      "rotation": [
        -0.70710678118654746,
        -0,
        -0,
        0.70710678118654757
      ]
    },
    {
      "children": [
        2
      ],
      "name": "RootNode (model correction matrix)"
    },
    {
      "children": [
        3,
        4,
        5,
        6,
        7,
        8,
        9,
        10,
        11,
        12
      ],
      "name": "Umbreon_50MB.stl.cleaner.materialmerger.gles"
    },
    {
      "mesh": 0,
      "name": ""
    },
    {
      "mesh": 1,
      "name": ""
    },
    {
      "mesh": 2,
      "name": ""
    },
    {
      "mesh": 3,
      "name": ""
    },
    {
      "mesh": 4,
      "name": ""
    },
    {
      "mesh": 5,
      "name": ""
    },
    {
      "mesh": 6,
      "name": ""
    },
    {
      "mesh": 7,
      "name": ""
    },
    {
      "mesh": 8,
      "name": ""
    },
    {
      "mesh": 9,
      "name": ""
    }
  ],
  "scene": 0,
  "scenes": [
    {
      "name": "OSG_Scene",
      "nodes": [
        0
      ]
    }
  ]
}

