{
  "accessors": [
    {
      "bufferView": 2,
      "componentType": 5126,
      "count": 36,
      "max": [
        0.82280600070953369,
        0.77952897548675537,
        0.79544800519943237
      ],
      "min": [
        -0.82206898927688599,
        -0.64179897308349609,
        0.73766499757766724
      ],
      "type": "VEC3"
    },
    {
      "bufferView": 2,
      "byteOffset": 432,
      "componentType": 5126,
      "count": 36,
      "max": [
        0.079347319900989532,
        0.11908198148012161,
        0.999126136302948
      ],
      "min": [
        -0.072479978203773499,
        -0.11429294943809509,
        0.9928739070892334
      ],
      "type": "VEC3"
    },
    {
      "bufferView": 3,
      "componentType": 5126,
      "count": 36,
      "max": [
        0.99998956918716431,
        0.0012125796638429165,
        0.0724906325340271,
        1
      ],
      "min": [
        0.99684703350067139,
        -0.0015773115446791053,
        -0.079335786402225494,
        1
      ],
      "type": "VEC4"
    },
    {
      "bufferView": 1,
      "componentType": 5126,
      "count": 36,
      "max": [
        0.59017199277877808,
        0.94842702150344849
      ],
      "min": [
        0.31104400753974915,
        0.69969302415847778
      ],
      "type": "VEC2"
    },
    {
      "bufferView": 0,
      "componentType": 5125,
      "count": 150,
      "max": [
        35
      ],
      "min": [
        0
      ],
      "type": "SCALAR"
    },
    {
      "bufferView": 2,
      "byteOffset": 864,
      "componentType": 5126,
      "count": 225,
      "max": [
        0.88936901092529297,
        -0.88271898031234741,
        0.77135401964187622
      ],
      "min": [
        -0.89087700843811035,
        -1.0001100301742554,
        0.17759899795055389
      ],
      "type": "VEC3"
    },
    {
      "bufferView": 2,
      "byteOffset": 3564,
      "componentType": 5126,
      "count": 225,
      "max": [
        0.9237104058265686,
        0.95016849040985107,
        0.9999883770942688
      ],
      "min": [
        -0.92382299900054932,
        -1,
        -0.99999934434890747
      ],
      "type": "VEC3"
    },
    {
      "bufferView": 3,
      "byteOffset": 576,
      "componentType": 5126,
      "count": 225,
      "max": [
        0.99999988079071045,
        0.99999809265136719,
        0.48823201656341553,
        1
      ],
      "min": [
        -1,
        -0.99999719858169556,
        -0.48822757601737976,
        1
      ],
      "type": "VEC4"
    },
    {
      "bufferView": 1,
      "byteOffset": 288,
      "componentType": 5126,
      "count": 225,
      "max": [
        0.92677402496337891,
        0.63428002595901489
      ],
      "min": [
        0.2784389853477478,
        0.02353299967944622
      ],
      "type": "VEC2"
    },
    {
      "bufferView": 0,
      "byteOffset": 600,
      "componentType": 5125,
      "count": 912,
      "max": [
        224
      ],
      "min": [
        0
      ],
      "type": "SCALAR"
    },
    {
      "bufferView": 2,
      "byteOffset": 6264,
      "componentType": 5126,
      "count": 32,
      "max": [
        0.73847997188568115,
        0.7593039870262146,
        -0.14888499677181244
      ],
      "min": [
        -0.73998802900314331,
        -0.78952300548553467,
        -0.81961697340011597
      ],
      "type": "VEC3"
    },
    {
      "bufferView": 2,
      "byteOffset": 6648,
      "componentType": 5126,
      "count": 32,
      "max": [
        0.88862514495849609,
        0.87243902683258057,
        -0.26337185502052307
      ],
      "min": [
        -0.88811343908309937,
        -0.73630493879318237,
        -0.93488973379135132
      ],
      "type": "VEC3"
    },
    {
      "bufferView": 3,
      "byteOffset": 4176,
      "componentType": 5126,
      "count": 32,
      "max": [
        0.64705866575241089,
        0.97343271970748901,
        0.43440529704093933,
        1
      ],
      "min": [
        -0.96048378944396973,
        -0.97373968362808228,
        -0.45196068286895752,
        1
      ],
      "type": "VEC4"
    },
    {
      "bufferView": 1,
      "byteOffset": 2088,
      "componentType": 5126,
      "count": 32,
      "max": [
        0.58433699607849121,
        0.98930901288986206
      ],
      "min": [
        0.005098000168800354,
        0.0078680003061890602
      ],
      "type": "VEC2"
    },
    {
      "bufferView": 0,
      "byteOffset": 4248,
      "componentType": 5125,
      "count": 90,
      "max": [
        31
      ],
      "min": [
        0
      ],
      "type": "SCALAR"
    },
    {
      "bufferView": 2,
      "byteOffset": 7032,
      "componentType": 5126,
      "count": 18,
      "max": [
        0.82791101932525635,
        -0.88271898031234741,
        0.18801200389862061
      ],
      "min": [
        -0.82941901683807373,
        -0.9969329833984375,
        -0.13663500547409058
      ],
      "type": "VEC3"
    },
    {
      "bufferView": 2,
      "byteOffset": 7248,
      "componentType": 5126,
      "count": 18,
      "max": [
        0.9999348521232605,
        -0.0019066497916355729,
        -0.0013740604044869542
      ],
      "min": [
        -0.99993902444839478,
        -0.9908912181854248,
        -0.92396390438079834
      ],
      "type": "VEC3"
    },
    {
      "bufferView": 3,
      "byteOffset": 4688,
      "componentType": 5126,
      "count": 18,
      "max": [
        0.99068152904510498,
        0.99987006187438965,
        0.38408967852592468,
        1
      ],
      "min": [
        0.002088179113343358,
        -0.99981057643890381,
        -0.38247814774513245,
        1
      ],
      "type": "VEC4"
    },
    {
      "bufferView": 1,
      "byteOffset": 2344,
      "componentType": 5126,
      "count": 18,
      "max": [
        0.92999202013015747,
        0.13237200677394867
      ],
      "min": [
        0.58929800987243652,
        0.052096001803874969
      ],
      "type": "VEC2"
    },
    {
      "bufferView": 0,
      "byteOffset": 4608,
      "componentType": 5125,
      "count": 60,
      "max": [
        17
      ],
      "min": [
        0
      ],
      "type": "SCALAR"
    },
    {
      "bufferView": 2,
      "byteOffset": 7464,
      "componentType": 5126,
      "count": 616,
      "max": [
        0.97777897119522095,
        0.94212502241134644,
        0.8211740255355835
      ],
      "min": [
        -0.97949099540710449,
        -0.90889298915863037,
        -0.30344998836517334
      ],
      "type": "VEC3"
    },
    {
      "bufferView": 2,
      "byteOffset": 14856,
      "componentType": 5126,
      "count": 616,
      "max": [
        1,
        0.99999898672103882,
        0.99999278783798218
      ],
      "min": [
        -1,
        -0.99999886751174927,
        -0.99960678815841675
      ],
      "type": "VEC3"
    },
    {
      "bufferView": 3,
      "byteOffset": 4976,
      "componentType": 5126,
      "count": 616,
      "max": [
        1,
        0.99999904632568359,
        0.9518357515335083,
        1
      ],
      "min": [
        -1,
        -0.90291833877563477,
        -0.99993640184402466,
        1
      ],
      "type": "VEC4"
    },
    {
      "bufferView": 1,
      "byteOffset": 2488,
      "componentType": 5126,
      "count": 616,
      "max": [
        0.98899900913238525,
        0.99067401885986328
      ],
      "min": [
        0.015790000557899475,
        0.069086000323295593
      ],
      "type": "VEC2"
    },
    {
      "bufferView": 0,
      "byteOffset": 4848,
      "componentType": 5125,
      "count": 2922,
      "max": [
        615
      ],
      "min": [
        0
      ],
      "type": "SCALAR"
    },
    {
      "bufferView": 2,
      "byteOffset": 22248,
      "componentType": 5126,
      "count": 24,
      "max": [
        0.43751800060272217,
        -0.21766099333763123,
        -0.14888499677181244
      ],
      "min": [
        -0.43739300966262817,
        -0.83056902885437012,
        -0.73794502019882202
      ],
      "type": "VEC3"
    },
    {
      "bufferView": 2,
      "byteOffset": 22536,
      "componentType": 5126,
      "count": 24,
      "max": [
        0.97387534379959106,
        -0.002286440460011363,
        -0.22688999772071838
      ],
      "min": [
        -0.97391301393508911,
        -0.87945389747619629,
        -0.94695132970809937
      ],
      "type": "VEC3"
    },
    {
      "bufferView": 3,
      "byteOffset": 14832,
      "componentType": 5126,
      "count": 24,
      "max": [
        -0.22174544632434845,
        0.39409041404724121,
        0.96215808391571045,
        1
      ],
      "min": [
        -0.96144866943359375,
        -0.39689281582832336,
        -0.96169233322143555,
        1
      ],
      "type": "VEC4"
    },
    {
      "bufferView": 1,
      "byteOffset": 7416,
      "componentType": 5126,
      "count": 24,
      "max": [
        0.9179689884185791,
        0.57173401117324829
      ],
      "min": [
        0.70907002687454224,
        0.15810100734233856
      ],
      "type": "VEC2"
    },
    {
      "bufferView": 0,
      "byteOffset": 16536,
      "componentType": 5125,
      "count": 60,
      "max": [
        23
      ],
      "min": [
        0
      ],
      "type": "SCALAR"
    }
  ],
  "asset": {
    "extras": {
      "author": "warkarma (https://sketchfab.com/warkarma)",
      "license": "CC-BY-4.0 (http://creativecommons.org/licenses/by/4.0/)",
      "source": "https://sketchfab.com/3d-models/1990-tv-f4a523c95d964e1c973856c9b2bca233",
      "title": "1990 TV"
    },
    "generator": "Sketchfab-6.49.1",
    "version": "2.0"
  },
  "bufferViews": [
    {
      "buffer": 0,
      "byteLength": 16776,
      "byteOffset": 0,
      "name": "floatBufferViews",
      "target": 34963
    },
    {
      "buffer": 0,
      "byteLength": 7608,
      "byteOffset": 16776,
      "byteStride": 8,
      "name": "floatBufferViews",
      "target": 34962
    },
    {
      "buffer": 0,
      "byteLength": 22824,
      "byteOffset": 24384,
      "byteStride": 12,
      "name": "floatBufferViews",
      "target": 34962
    },
    {
      "buffer": 0,
      "byteLength": 15216,
      "byteOffset": 47208,
      "byteStride": 16,
      "name": "floatBufferViews",
      "target": 34962
    }
  ],
  "buffers": [
    {
      "byteLength": 62424,
      "uri": "scene.bin"
    }
  ],
  "images": [
    {
      "uri": "textures/DefaultMaterial_baseColor.jpeg"
    },
    {
      "uri": "textures/DefaultMaterial_metallicRoughness.png"
    },
    {
      "uri": "textures/DefaultMaterial_normal.png"
    }
  ],
  "materials": [
    {
      "doubleSided": true,
      "name": "DefaultMaterial",
      "normalTexture": {
        "index": 2,
        "scale": 1,
        "texCoord": 0
      },
      "occlusionTexture": {
        "index": 1,
        "strength": 1,
        "texCoord": 0
      },
      "pbrMetallicRoughness": {
        "baseColorFactor": [
          1,
          1,
          1,
          1
        ],
        "baseColorTexture": {
          "index": 0,
          "texCoord": 0
        },
        "metallicFactor": 1,
        "metallicRoughnessTexture": {
          "index": 1,
          "texCoord": 0
        },
        "roughnessFactor": 1
      }
    }
  ],
  "meshes": [
    {
      "name": "defaultMaterial",
      "primitives": [
        {
          "attributes": {
            "NORMAL": 1,
            "POSITION": 0,
            "TANGENT": 2,
            "TEXCOORD_0": 3
          },
          "indices": 4,
          "material": 0,
          "mode": 4
        }
      ]
    },
    {
      "name": "defaultMaterial",
      "primitives": [
        {
          "attributes": {
            "NORMAL": 6,
            "POSITION": 5,
            "TANGENT": 7,
            "TEXCOORD_0": 8
          },
          "indices": 9,
          "material": 0,
          "mode": 4
        }
      ]
    },
    {
      "name": "defaultMaterial",
      "primitives": [
        {
          "attributes": {
            "NORMAL": 11,
            "POSITION": 10,
            "TANGENT": 12,
            "TEXCOORD_0": 13
          },
          "indices": 14,
          "material": 0,
          "mode": 4
        }
      ]
    },
    {
      "name": "defaultMaterial",
      "primitives": [
        {
          "attributes": {
            "NORMAL": 16,
            "POSITION": 15,
            "TANGENT": 17,
            "TEXCOORD_0": 18
          },
          "indices": 19,
          "material": 0,
          "mode": 4
        }
      ]
    },
    {
      "name": "defaultMaterial",
      "primitives": [
        {
          "attributes": {
            "NORMAL": 21,
            "POSITION": 20,
            "TANGENT": 22,
            "TEXCOORD_0": 23
          },
          "indices": 24,
          "material": 0,
          "mode": 4
        }
      ]
    },
    {
      "name": "defaultMaterial",
      "primitives": [
        {
          "attributes": {
            "NORMAL": 26,
            "POSITION": 25,
            "TANGENT": 27,
            "TEXCOORD_0": 28
          },
          "indices": 29,
          "material": 0,
          "mode": 4
        }
      ]
    }
  ],
  "nodes": [
    {
      "children": [
        1
      ],
      "name": "RootNode (gltf orientation matrix)",
      "rotation": [
        -0.70710678118654746,
        -0,
        -0,
        0.70710678118654757
      ]
    },
    {
      "children": [
        2
      ],
      "name": "RootNode (model correction matrix)"
    },
    {
      "children": [
        3,
        5,
        7,
        9,
        11,
        13
      ],
      "matrix": [
        1,
        0,
        0,
        0,
        0,
        -4.3711390063094768e-08,
        0.999999999999999,
        0,
        0,
        -0.999999999999999,
        -4.3711390063094768e-08,
        0,
        0,
        0,
        0,
        1
      ],
      "name": "Collada visual scene group"
    },
    {
      "children": [
        4
      ],
      "name": "Plane002"
    },
    {
      "mesh": 0,
      "name": "defaultMaterial"
    },
    {
      "children": [
        6
      ],
      "name": "Plane001"
    },
    {
      "mesh": 1,
      "name": "defaultMaterial"
    },
    {
      "children": [
        8
      ],
      "name": "Plane0011111"
    },
    {
      "mesh": 2,
      "name": "defaultMaterial"
    },
    {
      "children": [
        10
      ],
      "name": "Plane005"
    },
    {
      "mesh": 3,
      "name": "defaultMaterial"
    },
    {
      "children": [
        12
      ],
      "name": "Plane003"
    },
    {
      "mesh": 4,
      "name": "defaultMaterial"
    },
    {
      "children": [
        14
      ],
      "name": "Plane004"
    },
    {
      "mesh": 5,
      "name": "defaultMaterial"
    }
  ],
  "samplers": [
    {
      "magFilter": 9729,
      "minFilter": 9987,
      "wrapS": 10497,
      "wrapT": 10497
    }
  ],
  "scene": 0,
  "scenes": [
    {
      "name": "OSG_Scene",
      "nodes": [
        0
      ]
    }
  ],
  "textures": [
    {
      "sampler": 0,
      "source": 0
    },
    {
      "sampler": 0,
      "source": 1
    },
    {
      "sampler": 0,
      "source": 2
    }
  ]
}

