{
  "accessors": [
    {
      "bufferView": 1,
      "componentType": 5126,
      "count": 65532,
      "max": [
        31.369354248046875,
        47.620845794677734,
        74.140739440917969
      ],
      "min": [
        -67.49432373046875,
        -25.833740234375,
        -2.6995958251063712e-05
      ],
      "type": "VEC3"
    },
    {
      "bufferView": 1,
      "byteOffset": 786384,
      "componentType": 5126,
      "count": 65532,
      "max": [
        0.99996823072433472,
        0.99999731779098511,
        0.99934804439544678
      ],
      "min": [
        -0.99997794628143311,
        -0.99997168779373169,
        -1
      ],
      "type": "VEC3"
    },
    {
      "bufferView": 0,
      "componentType": 5125,
      "count": 363978,
      "max": [
        65531
      ],
      "min": [
        0
      ],
      "type": "SCALAR"
    },
    {
      "bufferView": 1,
      "byteOffset": 1572768,
      "componentType": 5126,
      "count": 65532,
      "max": [
        13.579851150512695,
        18.998197555541992,
        60.013660430908203
      ],
      "min": [
        -38.276756286621094,
        -30.211765289306641,
        -2.6995958251063712e-05
      ],
      "type": "VEC3"
    },
    {
      "bufferView": 1,
      "byteOffset": 2359152,
      "componentType": 5126,
      "count": 65532,
      "max": [
        0.99999457597732544,
        0.99984645843505859,
        0.99998289346694946
      ],
      "min": [
        -0.99997806549072266,
        -0.99996435642242432,
        -1
      ],
      "type": "VEC3"
    },
    {
      "bufferView": 0,
      "byteOffset": 1455912,
      "componentType": 5125,
      "count": 366105,
      "max": [
        65531
      ],
      "min": [
        0
      ],
      "type": "SCALAR"
    },
    {
      "bufferView": 1,
      "byteOffset": 3145536,
      "componentType": 5126,
      "count": 65532,
      "max": [
        32.249050140380859,
        29.630393981933594,
        94.859077453613281
      ],
      "min": [
        -25.104902267456055,
        -24.104219436645508,
        -1.7386720685408363e-07
      ],
      "type": "VEC3"
    },
    {
      "bufferView": 1,
      "byteOffset": 3931920,
      "componentType": 5126,
      "count": 65532,
      "max": [
        0.99990743398666382,
        0.99996811151504517,
        0.96299290657043457
      ],
      "min": [
        -0.9737318754196167,
        -0.99998492002487183,
        -0.99997717142105103
      ],
      "type": "VEC3"
    },
    {
      "bufferView": 0,
      "byteOffset": 2920332,
      "componentType": 5125,
      "count": 360483,
      "max": [
        65531
      ],
      "min": [
        0
      ],
      "type": "SCALAR"
    },
    {
      "bufferView": 1,
      "byteOffset": 4718304,
      "componentType": 5126,
      "count": 65532,
      "max": [
        16.462995529174805,
        41.885013580322266,
        67.611175537109375
      ],
      "min": [
        -52.655776977539062,
        -30.031187057495117,
        -9.1145639089518227e-06
      ],
      "type": "VEC3"
    },
    {
      "bufferView": 1,
      "byteOffset": 5504688,
      "componentType": 5126,
      "count": 65532,
      "max": [
        0.96447241306304932,
        0.99898999929428101,
        0.99993991851806641
      ],
      "min": [
        -0.99999022483825684,
        -0.99971258640289307,
        -1
      ],
      "type": "VEC3"
    },
    {
      "bufferView": 0,
      "byteOffset": 4362264,
      "componentType": 5125,
      "count": 345366,
      "max": [
        65531
      ],
      "min": [
        0
      ],
      "type": "SCALAR"
    },
    {
      "bufferView": 1,
      "byteOffset": 6291072,
      "componentType": 5126,
      "count": 65532,
      "max": [
        19.22557258605957,
        19.279428482055664,
        99.816291809082031
      ],
      "min": [
        -21.405513763427734,
        -32.508407592773438,
        30.290246963500977
      ],
      "type": "VEC3"
    },
    {
      "bufferView": 1,
      "byteOffset": 7077456,
      "componentType": 5126,
      "count": 65532,
      "max": [
        0.99987387657165527,
        0.97264295816421509,
        0.9935988187789917
      ],
      "min": [
        -0.99999731779098511,
        -0.99999803304672241,
        -0.99998044967651367
      ],
      "type": "VEC3"
    },
    {
      "bufferView": 0,
      "byteOffset": 5743728,
      "componentType": 5125,
      "count": 357294,
      "max": [
        65531
      ],
      "min": [
        0
      ],
      "type": "SCALAR"
    },
    {
      "bufferView": 1,
      "byteOffset": 7863840,
      "componentType": 5126,
      "count": 65532,
      "max": [
        32.330326080322266,
        41.913787841796875,
        99.999969482421875
      ],
      "min": [
        -52.642448425292969,
        -32.3568115234375,
        -9.1145639089518227e-06
      ],
      "type": "VEC3"
    },
    {
      "bufferView": 1,
      "byteOffset": 8650224,
      "componentType": 5126,
      "count": 65532,
      "max": [
        0.99999475479125977,
        0.99992763996124268,
        0.99997931718826294
      ],
      "min": [
        -0.99969398975372314,
        -0.99974775314331055,
        -1
      ],
      "type": "VEC3"
    },
    {
      "bufferView": 0,
      "byteOffset": 7172904,
      "componentType": 5125,
      "count": 303939,
      "max": [
        65531
      ],
      "min": [
        0
      ],
      "type": "SCALAR"
    },
    {
      "bufferView": 1,
      "byteOffset": 9436608,
      "componentType": 5126,
      "count": 25206,
      "max": [
        32.330326080322266,
        39.187679290771484,
        99.850723266601562
      ],
      "min": [
        -51.737869262695312,
        -32.449127197265625,
        -2.6995958251063712e-05
      ],
      "type": "VEC3"
    },
    {
      "bufferView": 1,
      "byteOffset": 9739080,
      "componentType": 5126,
      "count": 25206,
      "max": [
        0.99992251396179199,
        0.99959510564804077,
        0.99206650257110596
      ],
      "min": [
        -0.92710548639297485,
        -0.99091231822967529,
        -1
      ],
      "type": "VEC3"
    },
    {
      "bufferView": 0,
      "byteOffset": 8388660,
      "componentType": 5125,
      "count": 109467,
      "max": [
        25205
      ],
      "min": [
        0
      ],
      "type": "SCALAR"
    }
  ],
  "asset": {
    "extras": {
      "author": "Patrickart.hk (https://sketchfab.com/Patrickart.hk)",
      "license": "CC-BY-NC-ND-4.0 (http://creativecommons.org/licenses/by-nc-nd/4.0/)",
      "source": "https://sketchfab.com/3d-models/charmanderpokemon-8a096cdfc20b4d3099ddedafc7ff107a",
      "title": "Charmander(Pokemon)"
    },
    "generator": "Sketchfab-9.34.0",
    "version": "2.0"
  },
  "bufferViews": [
    {
      "buffer": 0,
      "byteLength": 8826528,
      "byteOffset": 0,
      "name": "floatBufferViews",
      "target": 34963
    },
    {
      "buffer": 0,
      "byteLength": 10041552,
      "byteOffset": 8826528,
      "byteStride": 12,
      "name": "floatBufferViews",
      "target": 34962
    }
  ],
  "buffers": [
    {
      "byteLength": 18868080,
      "uri": "scene.bin"
    }
  ],
  "materials": [
    {
      "doubleSided": true,
      "name": "Scene_-_Root",
      "pbrMetallicRoughness": {
        "baseColorFactor": [
          1,
          1,
          1,
          1
        ],
        "metallicFactor": 0,
        "roughnessFactor": 0.59999999999999998
      }
    }
  ],
  "meshes": [
    {
      "primitives": [
        {
          "attributes": {
            "NORMAL": 1,
            "POSITION": 0
          },
          "indices": 2,
          "material": 0,
          "mode": 4
        }
      ]
    },
    {
      "primitives": [
        {
          "attributes": {
            "NORMAL": 4,
            "POSITION": 3
          },
          "indices": 5,
          "material": 0,
          "mode": 4
        }
      ]
    },
    {
      "primitives": [
        {
          "attributes": {
            "NORMAL": 7,
            "POSITION": 6
          },
          "indices": 8,
          "material": 0,
          "mode": 4
        }
      ]
    },
    {
      "primitives": [
        {
          "attributes": {
            "NORMAL": 10,
            "POSITION": 9
          },
          "indices": 11,
          "material": 0,
          "mode": 4
        }
      ]
    },
    {
      "primitives": [
        {
          "attributes": {
            "NORMAL": 13,
            "POSITION": 12
          },
          "indices": 14,
          "material": 0,
          "mode": 4
        }
      ]
    },
    {
      "primitives": [
        {
          "attributes": {
            "NORMAL": 16,
            "POSITION": 15
          },
          "indices": 17,
          "material": 0,
          "mode": 4
        }
      ]
    },
    {
      "primitives": [
        {
          "attributes": {
            "NORMAL": 19,
            "POSITION": 18
          },
          "indices": 20,
          "material": 0,
          "mode": 4
        }
      ]
    }
  ],
  "nodes": [
    {
      "children": [
        1
      ],
      "name": "RootNode (gltf orientation matrix)",
      "rotation": [
        -0.70710678118654746,
        -0,
        -0,
        0.70710678118654757
      ]
    },
    {
      "children": [
        2
      ],
      "name": "RootNode (model correction matrix)"
    },
    {
      "children": [
        3,
        4,
        5,
        6,
        7,
        8,
        9
      ],
      "name": "Charmander.stl.cleaner.materialmerger.gles"
    },
    {
      "mesh": 0,
      "name": ""
    },
    {
      "mesh": 1,
      "name": ""
    },
    {
      "mesh": 2,
      "name": ""
    },
    {
      "mesh": 3,
      "name": ""
    },
    {
      "mesh": 4,
      "name": ""
    },
    {
      "mesh": 5,
      "name": ""
    },
    {
      "mesh": 6,
      "name": ""
    }
  ],
  "scene": 0,
  "scenes": [
    {
      "name": "OSG_Scene",
      "nodes": [
        0
      ]
    }
  ]
}

